<svg width="232" height="232" viewBox="0 0 232 232" fill="none" xmlns="http://www.w3.org/2000/svg">
<path d="M107.919 5.16925C112.845 2.01836 119.155 2.01835 124.081 5.16925L132.956 10.8448C136.018 12.803 139.687 13.5828 143.281 13.0393L153.697 11.4641C159.479 10.5896 165.243 13.1557 168.462 18.0382L174.261 26.8327C176.262 29.867 179.296 32.0717 182.8 33.0368L192.956 35.8344C198.595 37.3875 202.816 42.076 203.772 47.8458L205.492 58.2387C206.086 61.8244 207.961 65.0727 210.77 67.3796L218.91 74.0661C223.429 77.7783 225.379 83.7785 223.905 89.438L221.249 99.6322C220.333 103.149 220.725 106.88 222.353 110.129L227.069 119.549C229.688 124.778 229.028 131.053 225.38 135.623L218.808 143.856C216.54 146.697 215.381 150.264 215.546 153.895L216.024 164.418C216.289 170.26 213.135 175.724 207.942 178.416L198.59 183.264C195.363 184.936 192.853 187.724 191.527 191.108L187.683 200.916C185.549 206.361 180.445 210.069 174.607 210.416L164.091 211.041C160.463 211.256 157.037 212.782 154.449 215.334L146.948 222.731C142.784 226.837 136.613 228.149 131.138 226.091L121.278 222.385C117.875 221.106 114.125 221.106 110.722 222.385L100.862 226.091C95.3873 228.149 89.2161 226.837 85.0519 222.731L77.5511 215.334C74.9632 212.782 71.5368 211.256 67.9086 211.041L57.3928 210.416C51.5548 210.069 46.4506 206.361 44.3167 200.916L40.4729 191.108C39.1467 187.724 36.637 184.936 33.4102 183.264L24.0577 178.416C18.8654 175.724 15.7109 170.26 15.9762 164.418L16.454 153.895C16.6188 150.264 15.4598 146.697 13.1923 143.856L6.62017 135.623C2.97152 131.053 2.31205 124.778 4.93067 119.549L9.64746 110.129C11.2748 106.88 11.6669 103.149 10.7508 99.6322L8.09544 89.438C6.62128 83.7785 8.57088 77.7783 13.0901 74.0661L21.2303 67.3796C24.0388 65.0727 25.9142 61.8244 26.5078 58.2386L28.2284 47.8458C29.1836 42.076 33.4052 37.3875 39.0435 35.8344L49.1996 33.0368C52.7037 32.0717 55.7381 29.867 57.7389 26.8327L63.5379 18.0382C66.7573 13.1557 72.5209 10.5896 78.3035 11.4641L88.7194 13.0393C92.3131 13.5828 95.9819 12.803 99.0438 10.8448L107.919 5.16925Z" fill="#E4DDD5"/>
<circle cx="116" cy="116.001" r="90.4189" stroke="black"/>
<circle cx="116" cy="116.001" r="58.5" stroke="black"/>
<path d="M46.8763 142.029C47.6176 142.001 48.3019 142.115 48.9291 142.371C49.5849 142.628 50.1836 142.999 50.7253 143.512C51.267 144.025 51.6947 144.624 52.0083 145.336C52.3219 146.049 52.493 146.762 52.493 147.503C52.493 148.245 52.3789 148.957 52.1223 149.613L50.4972 149.1C50.7253 148.587 50.8393 148.073 50.8108 147.56C50.7823 147.047 50.6683 146.534 50.4687 146.078C50.1836 145.422 49.7559 144.909 49.2142 144.538C48.6725 144.167 48.0738 143.939 47.418 143.882C46.7623 143.825 46.1351 143.939 45.5078 144.196C44.567 144.624 43.8827 145.308 43.5121 146.249C43.1414 147.19 43.1699 148.159 43.6261 149.157C43.9682 149.898 44.4244 150.411 45.0517 150.696C45.6789 150.982 46.4202 150.982 47.3325 150.668L45.9925 147.646L47.6461 146.905L49.7274 151.637L48.6155 152.122C47.9883 152.407 47.361 152.578 46.7338 152.635C46.1066 152.692 45.4793 152.635 44.9091 152.464C44.3104 152.293 43.7687 151.979 43.284 151.552C42.7993 151.096 42.3716 150.525 42.058 149.813C41.7444 149.1 41.5733 148.359 41.5448 147.617C41.5163 146.876 41.6304 146.163 41.8585 145.536C42.0865 144.88 42.4572 144.31 42.9704 143.768C43.4836 143.227 44.0538 142.799 44.738 142.514C45.4508 142.229 46.1351 142.058 46.8763 142.029Z" fill="black"/>
<path d="M54.5171 150.924L58.0239 156.626L56.4843 157.567L53.9469 153.462L51.9511 154.688L53.9469 157.909L52.4073 158.85L50.4115 155.629L48.0166 157.111L50.5541 161.217L49.0145 162.158L45.5077 156.455L54.5171 150.924Z" fill="black"/>
<path d="M58.7651 157.653L59.9056 159.136L53.006 164.524L56.0281 168.373L54.6026 169.485L50.44 164.154L58.7651 157.653Z" fill="black"/>
<path d="M63.4981 163.611L65.6079 165.721C66.4062 166.519 66.9479 167.346 67.2615 168.259C67.5751 169.171 67.6036 170.055 67.3755 170.967C67.1475 171.879 66.6628 172.706 65.893 173.476C65.1232 174.246 64.2964 174.731 63.384 174.959C62.4717 175.187 61.5879 175.158 60.6755 174.845C59.7632 174.531 58.9364 173.989 58.1381 173.191L56.0283 171.081L63.4981 163.611ZM59.421 171.879C59.7917 172.25 60.1908 172.564 60.6185 172.792C61.0176 173.02 61.4453 173.162 61.9015 173.219C62.3576 173.276 62.7853 173.219 63.27 173.048C63.7262 172.877 64.1823 172.564 64.61 172.108C65.0377 171.68 65.3513 171.224 65.5223 170.739C65.6934 170.283 65.7504 169.827 65.6934 169.371C65.6364 168.943 65.4653 168.515 65.2372 168.088C65.0091 167.688 64.6955 167.289 64.3249 166.89L63.5551 166.12L58.6512 171.138L59.421 171.879Z" fill="black"/>
<path d="M67.7179 179.407L76.6132 177.069L71.7664 173.762L72.7928 172.279L79.6354 176.955L78.609 178.438L69.7136 180.775L74.6745 184.168L73.6481 185.651L66.663 180.861L67.7179 179.407Z" fill="black"/>
<path d="M80.3763 177.411L82.0584 178.237L79.8346 182.714C79.5209 183.341 79.2929 183.854 79.1503 184.31C79.0077 184.766 78.9222 185.194 78.9507 185.593C78.9507 185.992 79.0648 186.363 79.2929 186.648C79.5209 186.962 79.8631 187.218 80.3192 187.446C80.6899 187.617 81.032 187.732 81.3456 187.76C81.6593 187.789 81.9444 187.76 82.2295 187.646C82.4861 187.532 82.7427 187.361 82.9993 187.104C83.2558 186.848 83.4839 186.563 83.712 186.22C83.9401 185.878 84.1682 185.479 84.3963 184.966L86.6201 180.49L88.3023 181.317L85.6793 186.591C84.9665 188.017 84.0827 188.9 82.9993 189.3C81.9158 189.699 80.7754 189.585 79.5495 188.957C78.3235 188.359 77.5537 187.503 77.2116 186.392C76.8694 185.308 77.069 184.054 77.7533 182.628L80.3763 177.411Z" fill="black"/>
<path d="M89.7852 181.916L93.8338 183.285C94.8316 183.627 95.5159 184.14 95.8865 184.853C96.2572 185.565 96.2857 186.364 96.0006 187.276C95.744 188.046 95.3448 188.588 94.7746 188.958C94.2044 189.329 93.5201 189.443 92.7503 189.329L93.8052 194.404L91.8095 193.719L90.7831 188.759L89.5857 188.359L88.1886 192.522L86.421 191.923L89.7852 181.916ZM92.4367 187.447C92.8644 187.59 93.2065 187.59 93.5201 187.476C93.8338 187.362 94.0618 187.105 94.1759 186.706C94.3184 186.335 94.2899 185.993 94.1189 185.679C93.9478 185.366 93.6627 185.166 93.235 185.024L90.9257 184.254L90.0988 186.706L92.4367 187.447Z" fill="black"/>
<path d="M97.9106 184.623L99.7353 184.966L98.7944 189.869C98.6519 190.554 98.5949 191.124 98.5664 191.609C98.5378 192.093 98.5949 192.521 98.7089 192.892C98.823 193.291 99.0225 193.576 99.3361 193.832C99.6213 194.061 100.02 194.232 100.534 194.317C100.933 194.403 101.303 194.403 101.617 194.346C101.931 194.289 102.187 194.175 102.415 194.004C102.643 193.832 102.843 193.576 103.014 193.262C103.185 192.949 103.328 192.606 103.442 192.207C103.556 191.808 103.67 191.352 103.784 190.81L104.725 185.906L106.578 186.249L105.466 192.036C105.181 193.576 104.554 194.688 103.613 195.372C102.672 196.056 101.531 196.256 100.191 195.999C98.8515 195.743 97.8821 195.144 97.2549 194.175C96.6276 193.205 96.4566 191.951 96.7702 190.411L97.9106 184.623ZM100.534 182.229C100.79 182.058 101.075 182 101.36 182.058C101.674 182.115 101.902 182.257 102.073 182.514C102.244 182.77 102.301 183.027 102.244 183.341C102.187 183.654 102.045 183.882 101.788 184.053C101.531 184.224 101.275 184.281 100.961 184.224C100.648 184.167 100.42 184.025 100.248 183.768C100.077 183.512 100.02 183.255 100.077 182.941C100.134 182.628 100.277 182.4 100.534 182.229ZM103.47 182.799C103.727 182.628 104.012 182.571 104.297 182.628C104.611 182.685 104.839 182.827 105.01 183.084C105.181 183.34 105.238 183.597 105.181 183.911C105.124 184.224 104.981 184.452 104.725 184.623C104.468 184.795 104.211 184.852 103.898 184.795C103.584 184.738 103.356 184.595 103.185 184.338C103.014 184.082 102.957 183.825 103.014 183.512C103.071 183.198 103.214 182.97 103.47 182.799Z" fill="black"/>
<path d="M107.689 189.585C108.003 188.929 108.402 188.359 108.915 187.903C109.429 187.447 110.027 187.076 110.712 186.82C111.396 186.563 112.137 186.449 112.907 186.477C113.677 186.506 114.389 186.706 115.045 187.019C115.701 187.333 116.271 187.789 116.756 188.331L115.53 189.585C114.846 188.701 113.933 188.245 112.821 188.188C112.137 188.16 111.538 188.302 110.94 188.616C110.341 188.929 109.913 189.386 109.571 189.927C109.229 190.469 109.029 191.096 109.001 191.78C108.972 192.465 109.115 193.092 109.4 193.662C109.714 194.261 110.113 194.717 110.655 195.088C111.196 195.458 111.795 195.629 112.479 195.658C112.964 195.686 113.449 195.601 113.933 195.401C114.418 195.202 114.846 194.945 115.188 194.603L116.214 195.971C115.672 196.428 115.074 196.798 114.447 197.055C113.791 197.311 113.107 197.397 112.394 197.369C111.396 197.312 110.484 197.055 109.657 196.513C108.83 196 108.203 195.316 107.746 194.46C107.29 193.605 107.091 192.664 107.119 191.666C107.205 190.925 107.376 190.241 107.689 189.585Z" fill="black"/>
<path d="M117.612 186.763L119.465 186.592L119.864 191.239L123.456 186.249L125.794 186.05L121.546 191.695L127.049 196.513L124.568 196.713L119.978 192.607L120.349 197.055L118.495 197.226L117.612 186.763Z" fill="black"/>
<path d="M130.384 188.473C130.47 187.76 130.669 187.076 131.011 186.477C131.354 185.879 131.81 185.337 132.38 184.881C132.95 184.425 133.634 184.082 134.376 183.883C135.117 183.683 135.858 183.626 136.6 183.712C137.341 183.797 138.025 184.025 138.652 184.396L137.911 185.907C137.455 185.594 136.942 185.422 136.429 185.365C135.915 185.308 135.402 185.365 134.889 185.479C134.205 185.679 133.634 186.021 133.178 186.506C132.722 186.991 132.409 187.561 132.266 188.188C132.123 188.815 132.123 189.471 132.323 190.127C132.608 191.125 133.178 191.894 134.062 192.379C134.946 192.864 135.915 192.978 136.942 192.693C137.712 192.465 138.31 192.065 138.681 191.495C139.052 190.925 139.166 190.155 138.994 189.243L135.801 190.155L135.317 188.416L140.306 187.019L140.648 188.188C140.848 188.844 140.905 189.5 140.876 190.127C140.848 190.754 140.705 191.353 140.449 191.923C140.192 192.493 139.821 192.978 139.308 193.405C138.795 193.833 138.168 194.147 137.426 194.375C136.685 194.574 135.915 194.66 135.174 194.574C134.433 194.489 133.749 194.289 133.15 193.947C132.551 193.605 132.009 193.177 131.553 192.607C131.097 192.037 130.755 191.381 130.555 190.668C130.356 189.927 130.299 189.214 130.384 188.473Z" fill="black"/>
<path d="M142.844 181.06L144.583 180.29L152.737 188.188L150.884 189.014L149.173 187.304L145.011 189.157L145.153 191.552L143.3 192.379L142.844 181.06ZM147.833 185.964L144.669 182.799L144.897 187.275L147.833 185.964Z" fill="black"/>
<path d="M148.774 178.238L152.423 175.985C153.307 175.444 154.162 175.244 154.961 175.415C155.759 175.586 156.386 176.071 156.899 176.869C157.327 177.553 157.498 178.238 157.413 178.893C157.327 179.549 156.985 180.148 156.386 180.69L160.976 183.113L159.18 184.225L154.704 181.83L153.621 182.486L155.93 186.221L154.333 187.19L148.774 178.238ZM154.733 179.72C155.103 179.492 155.36 179.207 155.445 178.893C155.559 178.58 155.502 178.238 155.274 177.895C155.075 177.553 154.79 177.354 154.448 177.297C154.105 177.24 153.735 177.325 153.364 177.553L151.283 178.836L152.623 181.032L154.733 179.72Z" fill="black"/>
<path d="M158.439 171.738L159.921 170.541L169.843 176.072L168.275 177.355L166.165 176.157L162.63 179.037L163.4 181.318L161.831 182.601L158.439 171.738ZM164.512 175.188L160.634 172.935L162.031 177.212L164.512 175.188Z" fill="black"/>
<path d="M163.428 167.631L165.025 165.892L174.234 166.947L168.703 161.872L169.957 160.503L177.74 167.631L176.4 169.085L166.564 167.945L172.495 173.362L171.24 174.73L163.428 167.631Z" fill="black"/>
<path d="M170.385 159.905L175.26 152.777L176.743 153.804L174.833 156.598L182.046 161.53L180.991 163.07L173.778 158.137L171.868 160.931L170.385 159.905Z" fill="black"/>
<path d="M175.659 151.808L176.571 150.183L185.78 155.315L184.868 156.94L175.659 151.808Z" fill="black"/>
<path d="M177.484 148.586L180.221 142.485L181.874 143.226L179.907 147.617L182.045 148.586L183.614 145.136L185.239 145.878L183.671 149.327L186.237 150.496L188.204 146.106L189.829 146.847L187.092 152.948L177.484 148.586Z" fill="black"/>
<path d="M43.1986 90.2543C42.7139 89.7126 42.3147 89.1424 42.0866 88.4867C41.83 87.8309 41.6875 87.1467 41.716 86.4054C41.7445 85.6641 41.8871 84.9513 42.2007 84.2386C42.5143 83.5258 42.942 82.9271 43.4837 82.4139C44.0254 81.9007 44.6241 81.53 45.3084 81.2734L46.0211 82.813C45.4794 82.9841 45.0232 83.2407 44.6526 83.6113C44.282 83.982 43.9683 84.4096 43.7688 84.8658C43.4837 85.5215 43.3696 86.1488 43.4552 86.833C43.5407 87.4888 43.7688 88.0875 44.1679 88.6007C44.5671 89.1139 45.0803 89.513 45.679 89.7982C46.6198 90.2258 47.5892 90.2543 48.5301 89.9122C49.4709 89.5416 50.1837 88.8858 50.6114 87.9164C50.9535 87.1752 51.0105 86.4624 50.8109 85.8066C50.6114 85.1509 50.0982 84.5807 49.2713 84.1245L47.9028 87.1467L46.2777 86.4054L48.3875 81.7011L49.4994 82.1858C50.1267 82.4709 50.6684 82.813 51.1531 83.2692C51.6092 83.6969 51.9799 84.1815 52.265 84.7232C52.5216 85.2649 52.6641 85.8637 52.6641 86.5479C52.6641 87.2037 52.4931 87.9164 52.1794 88.6007C51.8658 89.3135 51.4382 89.9122 50.8965 90.4539C50.3548 90.9671 49.756 91.3662 49.1288 91.6228C48.473 91.8794 47.7888 91.9935 47.076 91.9935C46.3347 91.9935 45.622 91.8224 44.9377 91.5088C44.282 91.1952 43.6832 90.7675 43.1986 90.2543Z" fill="black"/>
<path d="M45.7641 77.5394L49.2709 71.8657L50.8105 72.8066L48.273 76.8836L50.2688 78.1096L52.2645 74.8879L53.7756 75.8287L51.7799 79.0504L54.1748 80.533L56.7122 76.456L58.2233 77.3968L54.688 83.0705L45.7641 77.5394Z" fill="black"/>
<path d="M50.7251 69.8701L51.894 68.416L58.7651 73.8331L61.7873 69.9841L63.1843 71.096L58.9932 76.4275L50.7251 69.8701Z" fill="black"/>
<path d="M56.313 62.9708L58.4514 60.861C59.2497 60.0627 60.105 59.521 60.9888 59.2359C61.9012 58.9222 62.785 58.8937 63.6973 59.1218C64.6097 59.3499 65.4365 59.8631 66.1778 60.6329C66.9476 61.4027 67.4322 62.2295 67.6603 63.1418C67.8884 64.0542 67.8314 64.938 67.5178 65.8503C67.2042 66.7342 66.6625 67.5895 65.8642 68.3878L63.7258 70.4976L56.313 62.9708ZM64.5812 67.1048C64.9803 66.7342 65.2654 66.335 65.522 65.9359C65.7501 65.5367 65.8927 65.1091 65.9782 64.6529C66.0637 64.1967 65.9782 63.7406 65.8071 63.2844C65.6361 62.8282 65.3224 62.372 64.8948 61.9159C64.4671 61.4882 64.011 61.1746 63.5548 60.975C63.0986 60.8039 62.6424 60.7184 62.1863 60.8039C61.7586 60.861 61.3309 61.0035 60.9033 61.2316C60.5041 61.4597 60.105 61.7733 59.7058 62.144L58.936 62.9137L63.8114 67.8746L64.5812 67.1048Z" fill="black"/>
<path d="M71.9374 60.4613L73.0209 51.3379L68.174 54.6166L67.1761 53.1341L74.0187 48.4868L75.0166 49.9694L73.9332 59.0928L78.9226 55.7285L79.9205 57.2111L72.9068 61.9439L71.9374 60.4613Z" fill="black"/>
<path d="M76.0427 47.2885L77.7249 46.4617L79.9202 50.9379C80.2338 51.5651 80.5189 52.0498 80.7755 52.4489C81.0606 52.8481 81.3457 53.1617 81.6879 53.3898C82.0015 53.6179 82.3721 53.7604 82.7428 53.7604C83.1134 53.7604 83.541 53.6464 83.9972 53.4183C84.3679 53.2472 84.653 53.0191 84.8811 52.7911C85.1091 52.563 85.2517 52.3064 85.3087 52.0213C85.3943 51.7362 85.3943 51.4225 85.3372 51.0804C85.2802 50.7383 85.1947 50.3676 85.0521 49.9685C84.9096 49.5979 84.7385 49.1417 84.4819 48.657L82.2866 44.1808L83.9687 43.354L86.5632 48.6285C87.2474 50.054 87.447 51.3085 87.0764 52.3919C86.7343 53.4753 85.936 54.3306 84.71 54.9294C83.484 55.5281 82.3436 55.6421 81.2602 55.243C80.1768 54.8438 79.293 53.9315 78.6087 52.5345L76.0427 47.2885Z" fill="black"/>
<path d="M86.791 42.3284L90.8395 40.9884C91.8374 40.6463 92.6927 40.6748 93.434 41.0169C94.1753 41.359 94.66 41.9863 94.9736 42.8986C95.2302 43.6684 95.2302 44.3527 95.0021 44.9799C94.774 45.6071 94.2893 46.1203 93.6051 46.491L97.5111 49.9123L95.5153 50.568L91.7234 47.2037L90.5259 47.6029L91.8944 51.7655L90.1268 52.3642L86.791 42.3284ZM92.2366 45.1225C92.6642 44.9799 92.9493 44.7803 93.1204 44.4667C93.2915 44.1531 93.32 43.8395 93.1774 43.4688C93.0634 43.0982 92.8353 42.8131 92.5217 42.6705C92.2081 42.528 91.8374 42.528 91.4098 42.6705L89.1004 43.4403L89.8987 45.8922L92.2366 45.1225Z" fill="black"/>
<path d="M96.3135 39.3062L98.1382 38.9641L99.0506 43.8679C99.1646 44.5522 99.3072 45.0939 99.4782 45.5501C99.6493 46.0062 99.8489 46.3769 100.105 46.6905C100.362 47.0041 100.647 47.2322 101.018 47.3177C101.388 47.4318 101.816 47.4318 102.301 47.3462C102.7 47.2607 103.042 47.1467 103.299 46.9756C103.555 46.8045 103.783 46.605 103.926 46.3484C104.068 46.0918 104.183 45.8067 104.211 45.436C104.268 45.0939 104.268 44.6947 104.24 44.2956C104.211 43.8964 104.154 43.4118 104.04 42.8986L103.128 37.9947L104.981 37.6526L106.064 43.4403C106.349 44.9799 106.178 46.2343 105.551 47.2037C104.924 48.1731 103.954 48.7718 102.614 49.0284C101.274 49.285 100.134 49.0854 99.1931 48.4011C98.2523 47.7454 97.6535 46.6335 97.3684 45.0654L96.3135 39.3062ZM97.8816 36.113C98.0527 35.8564 98.2808 35.7139 98.5944 35.6568C98.908 35.5998 99.1646 35.6568 99.4212 35.8279C99.6778 35.999 99.8204 36.2271 99.8774 36.5407C99.9344 36.8543 99.8774 37.1394 99.7063 37.3675C99.5353 37.6241 99.3072 37.7666 98.9935 37.8237C98.6799 37.8807 98.3948 37.8237 98.1667 37.6526C97.9101 37.4815 97.7676 37.2534 97.7106 36.9398C97.6535 36.6547 97.7106 36.3696 97.8816 36.113ZM100.818 35.5713C100.989 35.3147 101.217 35.1722 101.531 35.1151C101.845 35.0581 102.13 35.1151 102.358 35.2862C102.614 35.4573 102.757 35.6853 102.814 35.999C102.871 36.3126 102.814 36.5977 102.643 36.8258C102.472 37.0824 102.244 37.2249 101.93 37.282C101.617 37.339 101.331 37.282 101.103 37.1109C100.847 36.9398 100.704 36.7117 100.647 36.3981C100.59 36.0845 100.647 35.8279 100.818 35.5713Z" fill="black"/>
<path d="M107.889 40.5317C108.146 39.8474 108.488 39.2487 108.972 38.7355C109.457 38.2223 109.999 37.8232 110.683 37.481C111.367 37.1674 112.08 36.9964 112.85 36.9393C113.62 36.9108 114.361 37.0249 115.045 37.2815C115.729 37.5381 116.357 37.9372 116.87 38.4219L115.758 39.7904C114.988 38.9921 114.047 38.593 112.935 38.65C112.251 38.6785 111.652 38.8781 111.111 39.2487C110.569 39.6193 110.141 40.104 109.856 40.6742C109.571 41.273 109.429 41.9002 109.457 42.556C109.486 43.2402 109.685 43.8389 110.027 44.4092C110.369 44.9794 110.854 45.407 111.424 45.6921C111.994 46.0058 112.622 46.1483 113.277 46.1198C113.762 46.0913 114.247 45.9772 114.703 45.7206C115.159 45.4641 115.558 45.1789 115.9 44.8083L117.069 46.0628C116.585 46.576 116.015 46.9751 115.387 47.2887C114.76 47.6024 114.076 47.7734 113.363 47.8019C112.365 47.859 111.424 47.6594 110.569 47.2032C109.714 46.7755 109.001 46.1483 108.488 45.3215C107.946 44.4947 107.661 43.5823 107.632 42.5845C107.518 41.9287 107.632 41.2159 107.889 40.5317Z" fill="black"/>
<path d="M118.923 37.0815L120.776 37.2526L120.348 41.8999L124.739 37.6232L127.077 37.8228L121.916 42.6411L126.507 48.3433L124.026 48.1152L120.206 43.2684L119.807 47.7161L117.953 47.545L118.923 37.0815Z" fill="black"/>
<path d="M131.924 41.9295C132.38 41.3593 132.922 40.9031 133.52 40.561C134.119 40.2189 134.803 40.0193 135.545 39.9337C136.286 39.8482 137.027 39.9052 137.768 40.1333C138.51 40.3614 139.165 40.7035 139.736 41.1597C140.306 41.6159 140.762 42.1861 141.133 42.8133L139.707 43.7257C139.479 43.2125 139.137 42.8133 138.738 42.4997C138.31 42.1861 137.854 41.9295 137.369 41.7869C136.685 41.5874 136.029 41.5874 135.373 41.7584C134.718 41.9295 134.176 42.2431 133.72 42.6993C133.264 43.1555 132.922 43.7257 132.75 44.3814C132.465 45.3793 132.551 46.3202 133.036 47.2325C133.52 48.1163 134.29 48.7151 135.316 49.0287C136.086 49.2568 136.799 49.2283 137.426 48.9146C138.053 48.601 138.538 48.0308 138.88 47.1755L135.63 46.2061L136.143 44.4955L141.104 45.921L140.762 47.0899C140.562 47.7457 140.306 48.3444 139.935 48.8576C139.565 49.3708 139.137 49.827 138.652 50.1691C138.139 50.5112 137.569 50.7393 136.913 50.8249C136.257 50.9104 135.545 50.8534 134.803 50.6253C134.062 50.3972 133.378 50.0551 132.808 49.5989C132.209 49.1427 131.753 48.601 131.41 48.0023C131.068 47.4036 130.84 46.7478 130.755 46.0065C130.669 45.2938 130.726 44.5525 130.926 43.8397C131.125 43.127 131.468 42.4997 131.924 41.9295Z" fill="black"/>
<path d="M147.519 43.8682L149.258 44.6665L148.745 55.9852L146.892 55.1584L147.034 52.735L142.9 50.8533L141.19 52.5639L139.336 51.7371L147.519 43.8682ZM147.148 50.8248L147.433 46.3486L144.24 49.5133L147.148 50.8248Z" fill="black"/>
<path d="M154.646 47.3179L158.267 49.5702C159.151 50.1119 159.721 50.7962 159.921 51.566C160.12 52.3358 159.978 53.1341 159.465 53.9324C159.037 54.6166 158.524 55.0728 157.868 55.3009C157.212 55.529 156.557 55.5005 155.815 55.1868L155.673 60.3758L153.905 59.2639L154.048 54.189L152.964 53.5332L150.655 57.2396L149.058 56.2417L154.646 47.3179ZM155.986 53.3051C156.357 53.5332 156.728 53.6187 157.041 53.5617C157.383 53.5047 157.64 53.3051 157.868 52.963C158.068 52.6209 158.153 52.2787 158.039 51.9366C157.925 51.5945 157.697 51.3094 157.326 51.0813L155.245 49.7983L153.877 51.9936L155.986 53.3051Z" fill="black"/>
<path d="M165.424 54.6738L166.907 55.8713L163.485 66.7054L161.917 65.4224L162.658 63.113L159.152 60.2334L157.07 61.4309L155.502 60.1479L165.424 54.6738ZM163.257 61.3168L164.683 57.0687L160.777 59.2926L163.257 61.3168Z" fill="black"/>
<path d="M171.525 59.8916L173.093 61.6308L171.183 70.6972L176.743 65.6508L177.997 67.0193L170.185 74.1185L168.874 72.6644L170.926 62.9708L164.968 68.3593L163.713 66.9908L171.525 59.8916Z" fill="black"/>
<path d="M179.366 68.8433L184.184 75.9995L182.701 76.9973L180.82 74.2033L173.549 79.1071L172.494 77.5676L179.765 72.6922L177.854 69.8696L179.366 68.8433Z" fill="black"/>
<path d="M185.096 77.7671L185.98 79.3922L176.743 84.4671L175.859 82.842L185.096 77.7671Z" fill="black"/>
<path d="M187.263 81.8154L189.972 87.9167L188.318 88.658L186.38 84.2674L184.241 85.2082L185.781 88.6865L184.127 89.4278L182.588 85.9495L180.022 87.0899L181.96 91.4806L180.307 92.2219L177.598 86.1206L187.263 81.8154Z" fill="black"/>
<path d="M141.148 144.857V126.853H152.13V129.065H143.592V134.337H150.382V136.549H143.592V142.645H152.362V144.857H141.148Z" fill="black"/>
<path d="M127.006 145.217C125.343 145.217 123.842 144.836 122.505 144.073C121.176 143.301 120.122 142.212 119.341 140.806C118.57 139.4 118.184 137.742 118.184 135.83C118.184 133.935 118.583 132.289 119.38 130.892C120.186 129.494 121.288 128.414 122.685 127.651C124.091 126.879 125.694 126.494 127.494 126.494C128.463 126.494 129.385 126.597 130.259 126.802C131.142 126.999 131.91 127.24 132.561 127.522L132.33 129.657C131.627 129.383 130.881 129.156 130.092 128.976C129.303 128.796 128.463 128.706 127.572 128.706C126.037 128.706 124.773 129.027 123.778 129.67C122.792 130.304 122.059 131.162 121.579 132.242C121.099 133.322 120.859 134.527 120.859 135.856C120.859 137.227 121.103 138.453 121.592 139.533C122.081 140.605 122.831 141.454 123.842 142.08C124.854 142.697 126.14 143.005 127.7 143.005C128.086 143.005 128.566 142.971 129.141 142.903C129.715 142.834 130.238 142.705 130.709 142.517V138.042H127.88V135.83H133.153V143.854C132.45 144.24 131.575 144.566 130.529 144.832C129.483 145.089 128.309 145.217 127.006 145.217Z" fill="black"/>
<path d="M108.759 139.996H101.043V137.784H108.759V139.996ZM104.541 129.245H105.261L99.7312 144.857H97.1593L103.615 126.853H106.187L112.642 144.857H110.07L104.541 129.245Z" fill="black"/>
<path d="M85.6502 144.857V129.065H80.4034V126.853H93.3403V129.065H88.0935V144.857H85.6502Z" fill="black"/>
<path d="M128.805 119.767C126.149 119.767 123.824 119.077 121.828 117.697C119.848 116.302 118.303 114.359 117.193 111.868C116.082 109.363 115.527 106.445 115.527 103.114C115.527 99.9335 116.082 97.1355 117.193 94.72C118.303 92.2895 119.848 90.3991 121.828 89.0489C123.824 87.6836 126.149 87.001 128.805 87.001C131.475 87.001 133.801 87.6836 135.781 89.0489C137.777 90.4142 139.322 92.312 140.417 94.7425C141.527 97.158 142.082 99.9485 142.082 103.114C142.082 106.445 141.527 109.363 140.417 111.868C139.322 114.359 137.777 116.302 135.781 117.697C133.801 119.077 131.475 119.767 128.805 119.767ZM128.805 114.591C130.23 114.591 131.505 114.201 132.631 113.421C133.771 112.641 134.671 111.411 135.331 109.73C135.991 108.035 136.321 105.83 136.321 103.114C136.321 99.3784 135.601 96.6104 134.161 94.81C132.736 92.9947 130.95 92.087 128.805 92.087C126.674 92.087 124.889 92.9872 123.449 94.7875C122.009 96.5729 121.288 99.3484 121.288 103.114C121.288 105.8 121.618 107.99 122.279 109.685C122.939 111.366 123.831 112.604 124.957 113.399C126.097 114.194 127.38 114.591 128.805 114.591Z" fill="black"/>
<path d="M99.0511 119.767C97.1608 119.767 95.4429 119.55 93.8976 119.115C92.3523 118.665 91.1146 118.207 90.1844 117.742L91.5797 112.881C92.5699 113.376 93.7101 113.826 95.0003 114.231C96.2906 114.621 97.6409 114.816 99.0511 114.816C100.701 114.816 102.022 114.441 103.012 113.691C104.002 112.926 104.497 111.756 104.497 110.181C104.497 108.605 104.01 107.42 103.034 106.625C102.074 105.815 100.626 105.41 98.6911 105.41H95.4954V100.009H98.6461C100.266 100.009 101.504 99.6335 102.359 98.8833C103.214 98.1332 103.642 97.098 103.642 95.7777C103.642 94.6225 103.244 93.6998 102.449 93.0097C101.669 92.3045 100.536 91.952 99.0511 91.952C97.7759 91.952 96.5681 92.147 95.4279 92.5371C94.3027 92.9271 93.185 93.4372 92.0748 94.0674L91.2196 88.9814C92.2548 88.4413 93.485 87.9762 94.9103 87.5861C96.3506 87.196 97.9259 87.001 99.6363 87.001C101.692 87.001 103.425 87.3535 104.835 88.0587C106.245 88.7488 107.31 89.7015 108.03 90.9168C108.766 92.132 109.133 93.5123 109.133 95.0576C109.133 97.083 108.593 98.8008 107.513 100.211C106.433 101.621 104.902 102.574 102.922 103.069L102.877 102.034C105.067 102.394 106.845 103.272 108.21 104.667C109.576 106.062 110.258 107.9 110.258 110.181C110.258 112.236 109.786 113.976 108.841 115.402C107.91 116.827 106.605 117.915 104.925 118.665C103.244 119.4 101.287 119.767 99.0511 119.767Z" fill="black"/>
</svg>
