<svg width="192" height="18" viewBox="0 0 192 18" fill="none" xmlns="http://www.w3.org/2000/svg">
<g clip-path="url(#clip0_80_1329)">
<path d="M0 0V1.27059V2.01176C0.0529227 2.17059 0.105845 2.27647 0.158768 2.43529C0.317536 2.85882 0.476304 3.33529 0.635072 3.81176C0.740918 4.23529 0.899686 4.71176 1.05845 5.13529C1.21722 5.55882 1.32307 5.92941 1.42891 6.24706L5.8215 17.8412H7.9384L1.21722 0H0Z" fill="black"/>
<path d="M20.8515 0H18.8405V17.8412H29.3721V15.8824H20.8515V0Z" fill="black"/>
<path d="M50.4353 0.688235C49.6944 0.211765 48.8476 0 47.895 0H40.8563V17.7882H42.8674V10.8H47.9479C48.9005 10.8 49.6944 10.5353 50.4882 10.0588C51.2291 9.58235 51.8113 8.94706 52.2876 8.1C52.711 7.25294 52.9756 6.35294 52.9756 5.29412C52.9756 4.28824 52.7639 3.38824 52.2876 2.59412C51.8113 1.8 51.1762 1.16471 50.4353 0.688235ZM50.4353 7.09412C50.1707 7.62353 49.8532 8.04706 49.4298 8.36471C49.0064 8.68235 48.5301 8.84118 48.0009 8.84118H42.8674V1.95882H48.0538C48.583 1.95882 49.0593 2.11765 49.4827 2.38235C49.9061 2.7 50.2236 3.07059 50.4882 3.6C50.7528 4.07647 50.8587 4.65882 50.8587 5.29412C50.8058 5.98235 50.6999 6.56471 50.4353 7.09412Z" fill="black"/>
<path d="M68.3761 0H66.3651V17.7882H68.3761V0Z" fill="black"/>
<path d="M163.637 0H161.626V17.7882H163.637V0Z" fill="black"/>
<path d="M96.0547 6.56471C96.0547 7.14706 96.0547 7.78235 96.0547 8.52353C96.0547 9.21176 96.0547 9.95294 96.1076 10.6941C96.1076 11.4353 96.1605 12.1765 96.1605 12.8647C96.1605 13.5529 96.2134 14.1882 96.2134 14.7176C96.2134 14.7706 96.2134 14.8235 96.2134 14.8765L85.0467 0H83.2474V17.7882H85.2584V9.74118C85.2584 9.58235 85.2584 9.31765 85.2584 9C85.2584 8.62941 85.2584 8.20588 85.2055 7.67647C85.2055 7.14706 85.1526 6.61765 85.1526 5.98235C85.1526 5.34706 85.0997 4.71176 85.0467 4.07647C85.0467 3.75882 84.9938 3.44118 84.9938 3.07059L96.2134 17.7882H98.0657V0H96.0547V6.56471Z" fill="black"/>
<path d="M122.886 10.7471C122.886 11.7529 122.675 12.6529 122.251 13.4471C121.828 14.2412 121.193 14.8765 120.452 15.3529C119.658 15.8294 118.811 16.0412 117.806 16.0412C116.853 16.0412 116.006 15.8294 115.266 15.3529C114.525 14.8765 113.89 14.2412 113.466 13.4471C113.043 12.6529 112.831 11.7529 112.831 10.7471V0H110.82V11.0118C110.82 12.3353 111.138 13.5529 111.72 14.6118C112.302 15.6706 113.149 16.5176 114.207 17.1C115.266 17.6824 116.43 18 117.806 18C119.182 18 120.346 17.6824 121.405 17.1C122.463 16.5176 123.31 15.6706 123.892 14.6118C124.474 13.5529 124.792 12.3353 124.792 11.0118V0H122.886V10.7471Z" fill="black"/>
<path d="M139.557 0H137.546V17.8412H148.078V15.8824H139.557V0Z" fill="black"/>
<path d="M191.368 14.6647L180.308 0H178.508V17.7882H180.519V9.74118C180.519 9.58235 180.519 9.31765 180.519 9C180.519 8.62941 180.519 8.20588 180.466 7.72941C180.466 7.2 180.413 6.67059 180.413 6.03529C180.413 5.4 180.36 4.76471 180.308 4.12941C180.308 3.81176 180.255 3.49412 180.255 3.12353L191.421 17.7882V14.6647H191.368Z" fill="black"/>
</g>
<defs>
<clipPath id="clip0_80_1329">
<rect width="191.368" height="18" fill="white"/>
</clipPath>
</defs>
</svg>
