<svg width="192" height="19" viewBox="0 0 192 19" fill="none" xmlns="http://www.w3.org/2000/svg">
<path d="M0 0.852539V2.12313V2.8643C0.0529227 3.02313 0.105845 3.12901 0.158768 3.28783C0.317536 3.71136 0.476304 4.18783 0.635072 4.6643C0.740918 5.08783 0.899686 5.5643 1.05845 5.98783C1.21722 6.41136 1.32307 6.78195 1.42891 7.0996L5.8215 18.6937H7.9384L1.21722 0.852539H0Z" fill="white"/>
<path d="M20.8515 0.852539H18.8405V18.6937H29.3721V16.7349H20.8515V0.852539Z" fill="white"/>
<path d="M50.4353 1.54077C49.6944 1.0643 48.8476 0.852539 47.895 0.852539H40.8563V18.6408H42.8674V11.6525H47.9479C48.9005 11.6525 49.6944 11.3878 50.4882 10.9114C51.2291 10.4349 51.8113 9.7996 52.2876 8.95254C52.711 8.10548 52.9756 7.20548 52.9756 6.14666C52.9756 5.14077 52.7639 4.24077 52.2876 3.44666C51.8113 2.65254 51.1762 2.01724 50.4353 1.54077ZM50.4353 7.94666C50.1707 8.47607 49.8532 8.8996 49.4298 9.21724C49.0064 9.53489 48.5301 9.69372 48.0009 9.69372H42.8674V2.81136H48.0538C48.583 2.81136 49.0593 2.97019 49.4827 3.23489C49.9061 3.55254 50.2236 3.92313 50.4882 4.45254C50.7528 4.92901 50.8587 5.51136 50.8587 6.14666C50.8058 6.83489 50.6999 7.41724 50.4353 7.94666Z" fill="white"/>
<path d="M68.3761 0.852539H66.3651V18.6408H68.3761V0.852539Z" fill="white"/>
<path d="M163.637 0.852539H161.626V18.6408H163.637V0.852539Z" fill="white"/>
<path d="M96.0547 7.41724C96.0547 7.9996 96.0547 8.63489 96.0547 9.37607C96.0547 10.0643 96.0547 10.8055 96.1076 11.5467C96.1076 12.2878 96.1605 13.029 96.1605 13.7172C96.1605 14.4055 96.2134 15.0408 96.2134 15.5702C96.2134 15.6231 96.2134 15.6761 96.2134 15.729L85.0467 0.852539H83.2474V18.6408H85.2584V10.5937C85.2584 10.4349 85.2584 10.1702 85.2584 9.85254C85.2584 9.48195 85.2584 9.05842 85.2055 8.52901C85.2055 7.9996 85.1526 7.47019 85.1526 6.83489C85.1526 6.1996 85.0997 5.5643 85.0467 4.92901C85.0467 4.61136 84.9938 4.29372 84.9938 3.92313L96.2134 18.6408H98.0657V0.852539H96.0547V7.41724Z" fill="white"/>
<path d="M122.886 11.5996C122.886 12.6055 122.675 13.5055 122.251 14.2996C121.828 15.0937 121.193 15.729 120.452 16.2055C119.658 16.682 118.811 16.8937 117.806 16.8937C116.853 16.8937 116.006 16.682 115.266 16.2055C114.525 15.729 113.89 15.0937 113.466 14.2996C113.043 13.5055 112.831 12.6055 112.831 11.5996V0.852539H110.82V11.8643C110.82 13.1878 111.138 14.4055 111.72 15.4643C112.302 16.5231 113.149 17.3702 114.207 17.9525C115.266 18.5349 116.43 18.8525 117.806 18.8525C119.182 18.8525 120.346 18.5349 121.405 17.9525C122.463 17.3702 123.31 16.5231 123.892 15.4643C124.474 14.4055 124.792 13.1878 124.792 11.8643V0.852539H122.886V11.5996Z" fill="white"/>
<path d="M139.557 0.852539H137.546V18.6937H148.078V16.7349H139.557V0.852539Z" fill="white"/>
<path d="M191.368 15.5172L180.308 0.852539H178.508V18.6408H180.519V10.5937C180.519 10.4349 180.519 10.1702 180.519 9.85254C180.519 9.48195 180.519 9.05842 180.466 8.58195C180.466 8.05254 180.413 7.52313 180.413 6.88783C180.413 6.25254 180.36 5.61724 180.308 4.98195C180.308 4.6643 180.255 4.34666 180.255 3.97607L191.421 18.6408V15.5172H191.368Z" fill="white"/>
</svg>
